<svg xmlns="http://www.w3.org/2000/svg" width="11" height="9" viewBox="0 0 11 9">
  <metadata><?xpacket begin="﻿" id="W5M0MpCehiHzreSzNTczkc9d"?>
<x:xmpmeta xmlns:x="adobe:ns:meta/" x:xmptk="Adobe XMP Core 5.6-c138 79.159824, 2016/09/14-01:09:01        ">
   <rdf:RDF xmlns:rdf="http://www.w3.org/1999/02/22-rdf-syntax-ns#">
      <rdf:Description rdf:about=""/>
   </rdf:RDF>
</x:xmpmeta>
                                                                                                    
                                                                                                    
                                                                                                    
                                                                                                    
                                                                                                    
                                                                                                    
                                                                                                    
                                                                                                    
                                                                                                    
                                                                                                    
                                                                                                    
                                                                                                    
                                                                                                    
                                                                                                    
                                                                                                    
                                                                                                    
                                                                                                    
                                                                                                    
                                                                                                    
                                                                                                    
                           
<?xpacket end="w"?></metadata>
<defs>
    <style>
      .cls-1 {
        fill: #10b4a3;
        fill-rule: evenodd;
      }
    </style>
  </defs>
  <path id="Heart_Favorite_small_copy_2" data-name="Heart / Favorite small copy 2" class="cls-1" d="M1497.01,4219.77s-3.75-2.93-4.34-3.94a3.037,3.037,0,0,1-.58-2.58,3.176,3.176,0,0,1,.9-1.59,2.674,2.674,0,0,1,1.82-.65c2.12,0,2.16,1.17,2.16,1.17,0.52,0.73.89-.02,0.89-0.02a3.039,3.039,0,0,1,2.3-1.16,2.823,2.823,0,0,1,1.87.68,3.162,3.162,0,0,1,.89,1.57,3.1,3.1,0,0,1-.58,2.58c-0.6,1.01-4.35,3.94-4.35,3.94A0.638,0.638,0,0,1,1497.01,4219.77Z" transform="translate(-1492 -4211)"/>
</svg>
